<svg xmlns="http://www.w3.org/2000/svg" width="19.885" height="19.885" viewBox="0 0 19.885 19.885">
  <path id="Icon_awesome-file-import" data-name="Icon awesome-file-import" d="M.621,11.185A.623.623,0,0,0,0,11.807V13.05a.623.623,0,0,0,.621.621h4.35V11.185ZM19.613,4.078,15.811.272A.931.931,0,0,0,15.151,0h-.237V4.971h4.971V4.734A.929.929,0,0,0,19.613,4.078Zm-5.942,1.2V0H5.9a.93.93,0,0,0-.932.932V11.185H9.943V8.653a.623.623,0,0,1,1.064-.439l3.713,3.748a.661.661,0,0,1,0,.932L11,16.638A.623.623,0,0,1,9.939,16.2V13.671H4.971v5.282a.93.93,0,0,0,.932.932h13.05a.93.93,0,0,0,.932-.932V6.214H14.6A.935.935,0,0,1,13.671,5.282Z" fill="#3d80f2"/>
</svg>
